<?xml version="1.0" standalone="no"?><svg xmlns="http://www.w3.org/2000/svg" viewBox="0 0 1440 320"><path fill="#ffffff" fill-opacity="1" d="M0,256L0,288L80,288L80,160L160,160L160,64L240,64L240,224L320,224L320,224L400,224L400,96L480,96L480,64L560,64L560,192L640,192L640,256L720,256L720,192L800,192L800,224L880,224L880,64L960,64L960,288L1040,288L1040,96L1120,96L1120,64L1200,64L1200,160L1280,160L1280,64L1360,64L1360,128L1440,128L1440,0L1360,0L1360,0L1280,0L1280,0L1200,0L1200,0L1120,0L1120,0L1040,0L1040,0L960,0L960,0L880,0L880,0L800,0L800,0L720,0L720,0L640,0L640,0L560,0L560,0L480,0L480,0L400,0L400,0L320,0L320,0L240,0L240,0L160,0L160,0L80,0L80,0L0,0L0,0Z"></path></svg>